PathFileType	4	(X/Y/Z)	10_2_40_p0_0-504_filt_butterworth.trc
DataRate	CameraRate	NumFrames	NumMarkers	Units	OrigDataRate	OrigDataStartFrame	OrigNumFrames
59.0	59.0	5	27	m	59.0	0	504
Frame#	Time	RHip			RKnee			RAnkle			RBigToe			RSmallToe			RHeel			LHip			LKnee			LAnkle			LBigToe			LSmallToe			LHeel			Neck			Head			Nose			RShoulder			RElbow			RWrist			RThumb			RIndex			RPinky			LShoulder			LElbow			LWrist			LThumb			LIndex			LPinky			
		X1	Y1	Z1	X2	Y2	Z2	X3	Y3	Z3	X4	Y4	Z4	X5	Y5	Z5	X6	Y6	Z6	X7	Y7	Z7	X8	Y8	Z8	X9	Y9	Z9	X10	Y10	Z10	X11	Y11	Z11	X12	Y12	Z12	X13	Y13	Z13	X14	Y14	Z14	X15	Y15	Z15	X16	Y16	Z16	X17	Y17	Z17	X18	Y18	Z18	X19	Y19	Z19	X20	Y20	Z20	X21	Y21	Z21	X22	Y22	Z22	X23	Y23	Z23	X24	Y24	Z24	X25	Y25	Z25	X26	Y26	Z26	X27	Y27	Z27	
0	0.0	0.30806574106012263	0.542944646916743	0.9380446138155331	0.31180271956204103	0.6694557104126674	1.3902893439171844	0.32283890821934935	0.7942660209732524	1.7979259260981115	0.2718194503145942	0.6057582305711924	1.851722773421014	0.3257962912537742	0.643947752836686	1.857240186012528	0.29291904347003467	0.9193231963598194	1.8739412573376466	0.07493103576963717	0.5276303606569928	0.9412067514618851	0.08058226955912069	0.6489244923103554	1.38365025044529	0.085159743509602	0.7791699913772715	1.801458803627136	0.11704865856969039	0.6131339237303437	1.8622448363403643	0.05722110041178792	0.6416453929379695	1.8468391181041361	0.09302668813788208	0.8797020918798799	1.8531226072215945	0.2014092996190689	0.37483688021417955	0.3362574141534653	0.21703200136735584	0.2914126047898629	0.10333054352230198	0.22176418692118327	0.2644382345328462	0.23499507975837933	0.36433260292971337	0.4194669714863439	0.4386175645417836	0.4261415481185134	0.3985630051791507	0.7265884085197871	0.25889381268956174	0.28281200144319896	0.8800628618882235	0.1595028294427569	0.25252954788225973	0.9531434164771524	0.1515475186156019	0.27472626049613186	0.9668747718380768	0.15494554614527895	0.30165081235606594	0.976697923474097	0.04537374020821462	0.3932215818593282	0.4189973693332431	0.013674323159913172	0.3600182919181714	0.7078664523550655	0.1361924316791163	0.2896409655807131	0.8810423344732244	0.2147778873303401	0.24994052987442486	0.943946209532405	0.2031302911214751	0.2661708068850333	0.9792561023577979	0.18610022292476325	0.29887286056573764	0.989573697665325
1	0.0169491525423728	0.3080269060025707	0.5430072263223934	0.9389394370849278	0.31182744527512984	0.6695316314734012	1.3903930241911735	0.3228874300816606	0.7943011502165627	1.7981119122007723	0.27108440253117105	0.6071792533561224	1.8515536165641413	0.32554858085349914	0.6441638972581275	1.85616424774676	0.293689787862356	0.9214312813053871	1.8782836435500367	0.07495342437187609	0.5276463972410599	0.9412060612490355	0.08207304984892208	0.6498129800213728	1.3837933423773574	0.08343124484583143	0.7701606070866327	1.8039593340392635	0.12371166687487398	0.6071402858202818	1.8619721342942972	0.061272212296258566	0.631301257425412	1.8455768824646166	0.09267804891600072	0.8799797040121653	1.859404208057363	0.20149378836581058	0.3746712946439002	0.33801717277406995	0.21695798806104805	0.2911599888405647	0.10249300896867802	0.22184846283137893	0.2642288068258224	0.2334089668796775	0.364316482585267	0.4194617377808043	0.43853454411147813	0.4258630938346663	0.39732583116751335	0.7244213643138335	0.2588166459570385	0.2827943865853426	0.8813133165711452	0.16521081731122383	0.2700329869542886	0.955577553853606	0.16070234283051538	0.2801789141531672	0.9707315198356508	0.15940231756573883	0.306467409467883	0.9770465085926562	0.04208732016074371	0.40047624610018595	0.4185171187289919	0.013777693274830076	0.35970781075947045	0.7068002721055155	0.1362222453812333	0.29038564208436873	0.8825434236775683	0.21498052991636968	0.2576671266328432	0.9455687523774107	0.20189182133269024	0.26450792947391066	0.9762373890895946	0.18771459032737106	0.3063322525236545	0.9900397619319385
2	0.0338983050847457	0.3080088962614813	0.5430506170015463	0.9393513117749096	0.3118388095503682	0.6695693278918663	1.3904419953587657	0.3229126402259769	0.7942759971693742	1.798233959988808	0.2706756258194478	0.6078870074213071	1.8527865059254478	0.32552791775965706	0.6440016010215729	1.8560149936423034	0.29392975939043975	0.9227523484027643	1.8811970432205622	0.07495830569280867	0.5276533996784589	0.9412308629415918	0.08347405005677445	0.65068624373319	1.383924871442554	0.0823863466489998	0.764755822636256	1.8054343056528013	0.12762226028283674	0.6035379478419634	1.8617959159848638	0.06366953477790208	0.6251227122536248	1.8448020142396346	0.09245640609829267	0.8801537323701152	1.8631596834322646	0.2014978354800379	0.37460805027394595	0.33833868221285784	0.21693683237548012	0.2910158619704329	0.1024673410228369	0.22166354185938594	0.26299724715661515	0.23276987638567512	0.3643011624310153	0.41945662320731447	0.4384900225613662	0.4257154939907495	0.39661985119971443	0.7231287302272364	0.2589902603416352	0.2840265454464376	0.8825956410990312	0.17071753713067886	0.2865718934622454	0.9583554637833275	0.16720133352033367	0.28684942792066237	0.9731829732396069	0.16282208013272195	0.31251528611339746	0.9771011657221189	0.040137436909369544	0.4047736074438991	0.4182310481408741	0.013812159442820446	0.3595302387031032	0.7063219198054409	0.13624256079222255	0.29109237694384726	0.8837291095108213	0.21655123339071636	0.26667207328036013	0.9464408324657286	0.203401436670287	0.2673790154130912	0.9744364663407193	0.18860879231171437	0.31078709750716665	0.9897360116492047
3	0.0508474576271186	0.3080303569345606	0.5430811827169396	0.9392672383517676	0.3118322982002557	0.6695803419301822	1.3904124591760747	0.3229104623704975	0.7941995114675284	1.7982679760353155	0.2706902010590711	0.607798962310464	1.854843355740589	0.3256596251871101	0.6436390618806215	1.85649996456416	0.2936733434468479	0.9229602441493248	1.8820800966135218	0.07494832320599447	0.527645172575546	0.941283709956318	0.08441314903213988	0.6513039442852447	1.3839902648252844	0.08206259693218278	0.7631116930133494	1.8058213304067119	0.1286859547129256	0.6025042134811749	1.861733707382403	0.06430715608004837	0.6234088241353593	1.8445901792705046	0.09238003258395805	0.8802197272747008	1.8642211616519309	0.20143507744387112	0.37463208265568276	0.3374456008265088	0.216949211365802	0.2909756467559941	0.10298234441503075	0.22107366983466753	0.2600980170895084	0.233024832728876	0.3643036195691287	0.4194047847421519	0.4384865016394705	0.42570571695572557	0.3964645955178051	0.7227803085617421	0.2595540034559626	0.2872406985692704	0.8835576844449977	0.17614985240675615	0.3000828857589204	0.9615915780845965	0.17121602155186955	0.29629649753977283	0.9748721750412717	0.16523247349611073	0.3204841554917223	0.976794352442278	0.039609513601229024	0.40592255055367843	0.41815605178242177	0.013753845419399136	0.3595551311549115	0.7066153959249336	0.13635491318348694	0.2915844099108284	0.8838660225610427	0.2198135960068754	0.2746512554479871	0.9465494394105122	0.20739836379399412	0.27332432048340827	0.973389853037743	0.18884074818191404	0.3120470383752175	0.9887654291022442
4	0.0677966101694915	0.30809204463033635	0.5430791181354493	0.939216696706538	0.31181525492696754	0.6695994888691348	1.3903362903264187	0.3228897689697821	0.7941355411434504	1.7982299092123446	0.27088149762948605	0.6073954073356476	1.856189067767143	0.32576678080173305	0.6433688096792219	1.8569035988908098	0.29332289609924883	0.9220483836234179	1.8807421071319177	0.07493638817478605	0.5276145013034188	0.9413476424670634	0.08473276826438127	0.6515379563093748	1.3839605655220208	0.08208094571737334	0.7631915083470859	1.8057331539755392	0.12851545278313736	0.6027091063253605	1.8617363804687974	0.06413029129153279	0.6238336846745953	1.844710512980047	0.09239213049986258	0.8802458186169675	1.8639984597780428	0.2013968163853585	0.3746689868348165	0.33682898259431054	0.21695266563558024	0.2909768333597309	0.10339214674787393	0.22028299109823057	0.2563542599958558	0.23347502795793168	0.36435380692200026	0.41921512653353415	0.4385066470425914	0.4257511108920914	0.3965447142060371	0.7228877869099416	0.2603257519730943	0.29148407610318205	0.8837462372710316	0.18153138183511527	0.3095485065263377	0.9646369284807796	0.17454658838931672	0.3089532721636685	0.9769909576607998	0.16736558970945753	0.3294429313496034	0.9763930247571123	0.03973107246989442	0.40559585590306746	0.41818535436652804	0.013655864342689396	0.359701382414921	0.7072285079794612	0.13688389553403088	0.29179902194489565	0.8826875600941899	0.22364902476902745	0.27788101384779496	0.9463037783306487	0.2119353602586033	0.2779342107354917	0.9718760194949922	0.18908175844508898	0.31189756557536336	0.9878473229539197
